<svg width="306.18125px" height="121.39999999999999px" xmlns="http://www.w3.org/2000/svg" viewBox="96.90937500000001 14.300000000000004 306.18125 121.39999999999999" style="background: none;" preserveAspectRatio="xMidYMid"><defs><filter id="editing-hover" x="-100%" y="-100%" width="300%" height="300%"><feFlood flood-color="#140402" result="flood"></feFlood><feComposite operator="in" in2="SourceAlpha" in="flood" result="shadow"></feComposite><feOffset dx="-4" dy="-4" in="SourceGraphic" result="offset-1"></feOffset><feOffset dx="4" dy="4" in="shadow" result="offset-2"></feOffset><feMerge><feMergeNode in="offset-2"></feMergeNode><feMergeNode in="offset-1"></feMergeNode></feMerge></filter></defs><g filter="url(#editing-hover)"><g transform="translate(145.29498505592346, 98.68000030517578)"><path d="M0.26-3.07L0.26-3.07L8.19-44.80L21.18-46.08L19.20-36.29L19.20-36.29Q18.50-33.28 17.60-31.17L17.60-31.17L17.60-31.17Q19.01-32.96 22.08-33.66L22.08-33.66L22.08-33.66Q22.98-33.92 24.06-33.92L24.06-33.92L24.06-33.92Q30.02-33.92 33.28-30.30L33.28-30.30L33.28-30.30Q36.54-26.69 36.54-19.71L36.54-19.71L36.54-19.71Q36.54-10.62 31.36-4.93L31.36-4.93L31.36-4.93Q25.79 1.28 15.68 1.28L15.68 1.28L15.68 1.28Q8.70 1.28 3.46-1.02L3.46-1.02L3.46-1.02Q1.60-1.86 0.26-3.07ZM16.51-22.40L13.12-3.65L13.12-3.65Q14.46-2.50 16.13-2.50L16.13-2.50L16.13-2.50Q17.79-2.50 18.75-3.14L18.75-3.14L18.75-3.14Q19.71-3.78 20.42-5.06L20.42-5.06L20.42-5.06Q22.34-8.51 23.87-19.07L23.87-19.07L23.87-19.07Q24.32-22.08 24.32-25.09L24.32-25.09L24.32-25.09Q24.32-28.10 23.65-29.06L23.65-29.06L23.65-29.06Q22.98-30.02 21.70-30.02L21.70-30.02L21.70-30.02Q17.79-30.02 16.51-22.40L16.51-22.40ZM60.42-17.98L60.42-17.98L60.42-17.98Q62.72-22.08 62.72-26.24L62.72-26.24L62.72-26.24Q62.72-28.99 60.74-28.99L60.74-28.99L60.74-28.99Q59.20-28.99 57.60-26.37L57.60-26.37L57.60-26.37Q55.94-23.74 55.42-20.35L55.42-20.35L52.10 0L38.85 1.28L45.38-32.64L55.94-33.92L54.78-27.46L54.78-27.46Q57.92-33.92 64.96-33.92L64.96-33.92L64.96-33.92Q68.67-33.92 70.69-32L70.69-32L70.69-32Q72.70-30.08 72.70-26.14L72.70-26.14L72.70-26.14Q72.70-22.21 70.11-19.71L70.11-19.71L70.11-19.71Q67.52-17.22 63.10-17.22L63.10-17.22L63.10-17.22Q61.18-17.22 60.42-17.98ZM105.15-26.62L105.15-26.62L105.15-26.62Q105.15-23.94 102.91-22.27L102.91-22.27L102.91-22.27Q100.67-20.61 97.02-20.61L97.02-20.61L97.02-20.61Q95.49-20.61 94.59-21.06L94.59-21.06L94.59-21.06Q95.30-22.72 95.52-24.80L95.52-24.80L95.52-24.80Q95.74-26.88 95.74-27.46L95.74-27.46L95.74-27.46Q95.74-30.14 93.89-30.14L93.89-30.14L93.89-30.14Q92.61-30.14 91.17-28.54L91.17-28.54L91.17-28.54Q89.73-26.94 88.51-24.45L88.51-24.45L88.51-24.45Q85.82-18.69 85.82-12.86L85.82-12.86L85.82-12.86Q85.82-9.66 87.04-8.22L87.04-8.22L87.04-8.22Q88.26-6.78 90.94-6.78L90.94-6.78L90.94-6.78Q94.66-6.78 97.60-9.86L97.60-9.86L97.60-9.86Q98.43-10.82 98.88-11.90L98.88-11.90L98.88-11.90Q101.31-10.62 101.31-7.10L101.31-7.10L101.31-7.10Q101.31-3.52 97.34-1.15L97.34-1.15L97.34-1.15Q93.25 1.28 86.72 1.28L86.72 1.28L86.72 1.28Q73.73 1.28 73.73-12.48L73.73-12.48L73.73-12.48Q73.73-22.53 79.42-28.29L79.42-28.29L79.42-28.29Q84.93-33.92 95.04-33.92L95.04-33.92L95.04-33.92Q105.15-33.92 105.15-26.62ZM109.66-1.92L109.66-1.92L109.66-1.92Q108.16-3.58 107.49-6.21L107.49-6.21L107.49-6.21Q106.82-8.83 106.82-13.12L106.82-13.12L106.82-13.12Q106.82-17.41 108.29-21.31L108.29-21.31L108.29-21.31Q109.76-25.22 112.45-28.03L112.45-28.03L112.45-28.03Q117.95-33.92 127.04-33.92L127.04-33.92L127.04-33.92Q130.30-33.92 132.67-32.83L132.67-32.83L143.62-33.92L138.88-8.96L138.88-8.96Q138.69-8.19 138.69-6.78L138.69-6.78L138.69-6.78Q138.69-5.38 139.55-4.48L139.55-4.48L139.55-4.48Q140.42-3.58 141.70-3.46L141.70-3.46L141.70-3.46Q141.06-1.28 138.72 0L138.72 0L138.72 0Q136.38 1.28 133.76 1.28L133.76 1.28L133.76 1.28Q131.14 1.28 129.38 0.29L129.38 0.29L129.38 0.29Q127.62-0.70 127.10-2.37L127.10-2.37L127.10-2.37Q126.08-0.77 123.90 0.26L123.90 0.26L123.90 0.26Q121.73 1.28 118.82 1.28L118.82 1.28L118.82 1.28Q115.90 1.28 113.54 0.51L113.54 0.51L113.54 0.51Q111.17-0.26 109.66-1.92ZM123.17-27.90L123.17-27.90L123.17-27.90Q122.43-26.75 121.79-24.80L121.79-24.80L121.79-24.80Q121.15-22.85 120.10-17.63L120.10-17.63L120.10-17.63Q119.04-12.42 119.04-8.70L119.04-8.70L119.04-8.70Q119.04-4.99 119.62-3.90L119.62-3.90L119.62-3.90Q120.19-2.82 121.22-2.82L121.22-2.82L121.22-2.82Q123.26-2.82 124.77-4.77L124.77-4.77L124.77-4.77Q126.27-6.72 126.85-10.18L126.85-10.18L130.24-28.93L130.24-28.93Q128.90-30.08 127.33-30.08L127.33-30.08L127.33-30.08Q125.76-30.08 124.83-29.57L124.83-29.57L124.83-29.57Q123.90-29.06 123.17-27.90ZM167.10-17.98L167.10-17.98L167.10-17.98Q169.41-22.08 169.41-26.24L169.41-26.24L169.41-26.24Q169.41-28.99 167.42-28.99L167.42-28.99L167.42-28.99Q165.89-28.99 164.29-26.37L164.29-26.37L164.29-26.37Q162.62-23.74 162.11-20.35L162.11-20.35L158.78 0L145.54 1.28L152.06-32.64L162.62-33.92L161.47-27.46L161.47-27.46Q164.61-33.92 171.65-33.92L171.65-33.92L171.65-33.92Q175.36-33.92 177.38-32L177.38-32L177.38-32Q179.39-30.08 179.39-26.14L179.39-26.14L179.39-26.14Q179.39-22.21 176.80-19.71L176.80-19.71L176.80-19.71Q174.21-17.22 169.79-17.22L169.79-17.22L169.79-17.22Q167.87-17.22 167.10-17.98ZM199.55-22.46L199.55-22.46L199.55-22.46Q200.45-24.83 200.45-26.88L200.45-26.88L200.45-26.88Q200.45-30.66 197.38-30.66L197.38-30.66L197.38-30.66Q195.78-30.66 194.46-29.22L194.46-29.22L194.46-29.22Q193.15-27.78 193.15-25.98L193.15-25.98L193.15-25.98Q193.15-24.70 194.18-23.68L194.18-23.68L194.18-23.68Q195.65-22.27 199.42-19.97L199.42-19.97L199.42-19.97Q203.20-17.66 204.64-15.78L204.64-15.78L204.64-15.78Q206.08-13.89 206.08-11.30L206.08-11.30L206.08-11.30Q206.08-8.70 204.83-6.34L204.83-6.34L204.83-6.34Q203.58-3.97 201.34-2.30L201.34-2.30L201.34-2.30Q196.54 1.28 188.86 1.28L188.86 1.28L188.86 1.28Q184.70 1.28 181.50-0.90L181.50-0.90L181.50-0.90Q178.30-3.01 178.30-5.50L178.30-5.50L178.30-5.50Q178.30-8 180.13-9.47L180.13-9.47L180.13-9.47Q181.95-10.94 184.64-10.94L184.64-10.94L184.64-10.94Q187.33-10.94 188.99-9.92L188.99-9.92L188.99-9.92Q188.16-7.81 188.16-6.40L188.16-6.40L188.16-6.40Q188.16-2.18 191.74-2.18L191.74-2.18L191.74-2.18Q193.28-2.18 194.30-3.14L194.30-3.14L194.30-3.14Q195.33-4.10 195.33-5.76L195.33-5.76L195.33-5.76Q195.33-9.02 189.82-12.48L189.82-12.48L189.82-12.48Q185.34-15.42 184.32-16.58L184.32-16.58L184.32-16.58Q182.59-18.62 182.59-21.18L182.59-21.18L182.59-21.18Q182.59-23.74 183.81-26.18L183.81-26.18L183.81-26.18Q185.02-28.61 187.26-30.34L187.26-30.34L187.26-30.34Q191.94-33.92 200.06-33.92L200.06-33.92L200.06-33.92Q204.22-33.92 206.69-32.26L206.69-32.26L206.69-32.26Q209.15-30.59 209.15-27.78L209.15-27.78L209.15-27.78Q209.15-24.96 207.46-23.36L207.46-23.36L207.46-23.36Q205.76-21.76 202.69-21.76L202.69-21.76L202.69-21.76Q200.58-21.76 199.55-22.46Z" fill="#ffffff"></path></g></g><style>text {
  font-size: 64px;
  font-family: Arial Black;
  dominant-baseline: central;
  text-anchor: middle;
}</style></svg>